<?xml version="1.0" encoding="utf-8"?>
<!-- Generator: Adobe Illustrator 16.0.0, SVG Export Plug-In . SVG Version: 6.00 Build 0)  -->
<!DOCTYPE svg PUBLIC "-//W3C//DTD SVG 1.1//EN" "http://www.w3.org/Graphics/SVG/1.1/DTD/svg11.dtd">
<svg version="1.1" xmlns="http://www.w3.org/2000/svg" xmlns:xlink="http://www.w3.org/1999/xlink" x="0px" y="0px"
	 width="409.93px" height="46.93px" viewBox="0 0 409.93 46.93" enable-background="new 0 0 409.93 46.93" xml:space="preserve">
<g id="Layer_2">
	<path fill="#69E6FF" d="M409.93,8.09c-0.83,0.05-1.69,0.08-2.62,0.08C391.13,8.17,391.13,0,374.95,0
		c-16.18,0-16.18,8.17-32.37,8.17C326.4,8.17,326.4,0,310.22,0c-16.18,0-16.18,8.17-32.36,8.17C261.68,8.17,261.68,0,245.5,0
		c-16.18,0-16.18,8.17-32.36,8.17C196.96,8.17,196.96,0,180.78,0s-16.18,8.17-32.36,8.17C132.24,8.17,132.24,0,116.06,0
		C99.88,0,99.88,8.17,83.7,8.17C67.52,8.17,67.52,0,51.34,0C35.16,0,35.16,8.17,18.98,8.17C9.06,8.17,5.22,5.1,0,2.72v44.21h409.93
		V8.09z"/>
</g>
<g id="Layer_4" display="none">
	<path display="inline" fill="#2ABEFF" d="M409.93,44.93c-6.99,2.37-10.24,6.62-21.92,6.62c-16.18,0-16.18-8.17-32.36-8.17
		c-16.18,0-16.18,8.17-32.37,8.17c-16.18,0-16.18-8.17-32.36-8.17c-16.18,0-16.18,8.17-32.36,8.17c-16.18,0-16.18-8.17-32.37-8.17
		c-16.18,0-16.18,8.17-32.36,8.17c-16.18,0-16.18-8.17-32.36-8.17c-16.18,0-16.18,8.17-32.36,8.17c-16.18,0-16.18-8.17-32.36-8.17
		c-16.18,0-16.18,8.17-32.36,8.17c-16.18,0-16.18-8.17-32.36-8.17c-16.07,0-16.18,8.06-32.03,8.17v38.76h409.93V44.93z"/>
</g>
<g id="Layer_3" display="none">
</g>
</svg>
